[img]http://img820.imageshack.us/img820/8044/apolloe.jpg[/img]
[code]
Apollo 18 2011 TS READNFO XViD - CHOiCE                                   

IMDB: http://www.imdb.com/title/tt1772240/           RELEASE DATE: 09/02/11                        
SIZE:   1.37 gb                                      LENGTH: 1H 14MN
SOURCE: V: RUSSIAN CAMRiP A: OWN                     HEIGHT: 392
SUBTITLES: ENGLISH                                   WIDTH: 720

INFO:
Video
ID                               : 0
Format                           : MPEG-4 Visual
Format profile                   : Advanced Simple@L5
Format settings, BVOP            : 2
Format settings, QPel            : No
Format settings, GMC             : No warppoints
Format settings, Matrix          : Default (H.263)
Muxing mode                      : Packed bitstream
Codec ID                         : XVID
Codec ID/Hint                    : XviD
Duration                         : 1h 14mn
Bit rate                         : 2 512 Kbps
Width                            : 720 pixels
Height                           : 392 pixels
Display aspect ratio             : 16:9
Frame rate                       : 25.000 fps
Color space                      : YUV
Chroma subsampling               : 4:2:0
Bit depth                        : 8 bits
Scan type                        : Progressive
Compression mode                 : Lossy
Bits/(Pixel*Frame)               : 0.356
Stream size                      : 1.30 GiB (95%)
Writing library                  : XviD 64

Audio
ID                               : 1
Format                           : MPEG Audio
Format version                   : Version 1
Format profile                   : Layer 3
Mode                             : Joint stereo
Mode extension                   : MS Stereo
Codec ID                         : 55
Codec ID/Hint                    : MP3
Duration                         : 1h 14mn
Bit rate mode                    : Constant
Bit rate                         : 128 Kbps
Channel(s)                       : 2 channels
Sampling rate                    : 44.1 KHz
Compression mode                 : Lossy
Stream size                      : 67.9 MiB (5%)
Alignment                        : Split accross interleaves
Interleave, duration             : 40 ms (1.00 video frame)

Plot:
Decades-old found footage from NASA's abandoned Apollo 18 mission, where two American astronauts were sent on a secret expedition, reveals the reason the U.S. has never returned to the moon.

NOTES:
Sharpened up the video and adjusted the RGB First 3 minutes missing from start, and the movie itself is made to look like its filmed in 1974 on the moon so keep that in mind Audio is very nice LiNE synced and remuxed
[/code]
Screens:
[img]http://img849.imageshack.us/img849/7575/86974049.png[/img]
[img]http://img716.imageshack.us/img716/6218/28834575.png[/img]
[img]http://img600.imageshack.us/img600/790/32742540.png[/img]
[img]http://img202.imageshack.us/img202/2842/15171486.png[/img]